Coordinates
version=1
nRows=19
nColumns=24
inDegrees=yes

Units are S.I. units (second, meters, Newtons, ...)
Angles are in degrees.

endheader
time	pelvis_tilt	pelvis_list	pelvis_rotation	pelvis_tx	pelvis_ty	pelvis_tz	hip_flexion_r	hip_adduction_r	hip_rotation_r	knee_angle_r	ankle_angle_r	subtalar_angle_r	mtp_angle_r	hip_flexion_l	hip_adduction_l	hip_rotation_l	knee_angle_l	ankle_angle_l	subtalar_angle_l	mtp_angle_l	lumbar_extension	lumbar_bending	lumbar_rotation
      3.93500000	     -7.65342340	     -7.09759180	      7.22641347	     -0.22398897	     -0.03652556	      0.66702257	     29.09464286	      4.44096622	     -2.34971331	    -33.64590463	      4.04057193	     -1.43493319	     16.76123400	     18.23363706	     -6.18374635	      4.33189398	    -65.75430836	    -23.31199009	     10.77793273	     37.51405548	      7.55926509	     14.37437868	     -8.52518420
      3.94000000	     -7.63102023	     -7.07693828	      6.98133261	     -0.21697449	     -0.03512202	      0.66762741	     28.37109402	      4.68523519	     -2.03214527	    -33.20584243	      4.28563905	     -1.59063043	     16.39476024	     19.15039045	     -6.20007573	      3.96483171	    -66.53373840	    -22.73539367	     10.43730895	     37.49842793	      7.45918209	     14.38675442	     -8.07918842
      3.94500000	     -7.59296119	     -7.05481598	      6.77106912	     -0.20998630	     -0.03367870	      0.66810097	     27.60972137	      4.88245017	     -1.78697843	    -32.73094310	      4.56747170	     -1.60897632	     16.03669300	     20.05278255	     -6.20666361	      3.60139971	    -67.25239677	    -22.23385778	      9.83359544	     36.97838903	      7.35191898	     14.40103494	     -7.67686621
      3.95000000	     -7.55680554	     -7.03280293	      6.57381944	     -0.20298818	     -0.03224870	      0.66850423	     26.83036947	      5.05386190	     -1.55289789	    -32.23369756	      4.92828937	     -1.46060848	     15.55515459	     20.94924450	     -6.20619884	      3.26513978	    -67.93866129	    -21.54595147	      9.31258430	     35.73653194	      7.25604034	     14.41522458	     -7.30412077
      3.95500000	     -7.54036096	     -6.98610052	      6.36817717	     -0.19599941	     -0.03078203	      0.66902647	     26.05595325	      5.21498234	     -1.29663435	    -31.68815429	      5.12154681	     -1.59440595	     15.33156966	     21.83419984	     -6.20201918	      2.90042095	    -68.46420749	    -21.22238097	      8.50392474	     35.15117694	      7.17989868	     14.38165854	     -6.96633766
      3.96000000	     -7.51374200	     -6.93556664	      6.13780398	     -0.18898472	     -0.02932591	      0.66944582	     25.25738960	      5.35509794	     -1.02676957	    -31.13552310	      5.38932000	     -1.48874853	     14.98105098	     22.69027254	     -6.19730727	      2.51347120	    -68.97719765	    -20.56732928	      7.84110179	     33.65730648	      7.09003606	     14.36903025	     -6.55766661
      3.96500000	     -7.51367165	     -6.85383465	      5.93883501	     -0.18203253	     -0.02786403	      0.66993499	     24.47389184	      5.46873931	     -0.69477032	    -30.54669008	      5.54214526	     -1.60652139	     14.76980218	     23.55783282	     -6.15399653	      2.16172327	    -69.34978682	    -20.20582765	      7.03156005	     32.87631404	      7.02448484	     14.29503059	     -6.23130882
      3.97000000	     -7.49509260	     -6.78104591	      5.70080690	     -0.17508183	     -0.02647134	      0.67039719	     23.68101585	      5.57728005	     -0.42910629	    -29.97583614	      5.75287215	     -1.58011177	     14.51460795	     24.38614302	     -6.14856315	      1.75638929	    -69.70084189	    -19.53574955	      6.34420212	     31.56924905	      6.92890447	     14.24591896	     -5.84817624
      3.97500000	     -7.51229214	     -6.67721225	      5.49573806	     -0.16816281	     -0.02509264	      0.67090400	     22.91718811	      5.65214768	     -0.13166156	    -29.37889359	      5.85487398	     -1.76213829	     14.35442989	     25.22847042	     -6.10010401	      1.39659203	    -69.90495932	    -19.15826031	      5.56769027	     31.13832143	      6.87534533	     14.13893333	     -5.54071311
      3.98000000	     -7.51356845	     -6.51534869	      5.24357946	     -0.16122966	     -0.02369840	      0.67141815	     22.12158943	      5.68775312	      0.31566949	    -28.78018523	      5.99924375	     -1.85082454	     14.08365709	     26.01429208	     -6.00722447	      0.98802729	    -70.06067344	    -18.56579681	      4.95069495	     30.10345329	      6.78587076	     13.98306179	     -5.16713499
      3.98500000	     -7.51258508	     -6.41970512	      5.01953587	     -0.15437974	     -0.02247480	      0.67186307	     21.35323476	      5.75488052	      0.62826172	    -28.21227016	      6.20886847	     -1.86394504	     13.72561551	     26.82048014	     -5.98206008	      0.62524262	    -70.20842994	    -17.83697891	      4.40853128	     28.98703634	      6.69318103	     13.89664259	     -4.82048717
      3.99000000	     -7.54127259	     -6.24369994	      4.76855265	     -0.14751216	     -0.02123782	      0.67239900	     20.60827316	      5.75564716	      1.02853731	    -27.63619767	      6.31141745	     -2.04233877	     13.44350375	     27.59910617	     -5.89003565	      0.23231909	    -70.20482772	    -17.32905885	      3.83699142	     28.45512766	      6.62472735	     13.71187510	     -4.48420582
      3.99500000	     -7.57706847	     -6.11947824	      4.55328252	     -0.14074924	     -0.02010852	      0.67285633	     19.88333956	      5.78629037	      1.38908596	    -27.05258342	      6.37574623	     -2.24434437	     13.23045036	     28.40407982	     -5.83124317	     -0.09185956	    -70.15081098	    -16.95381534	      3.17661113	     28.12950966	      6.55859463	     13.58044540	     -4.16038257
      4.00000000	     -7.55900387	     -5.93105916	      4.25649932	     -0.13392226	     -0.01899570	      0.67340113	     19.10188358	      5.77623929	      1.85699198	    -26.51015429	      6.57425768	     -2.28730159	     12.74167365	     29.09607181	     -5.77016070	     -0.52982832	    -70.07187741	    -16.20214454	      2.78400012	     26.88290625	      6.41841866	     13.39303028	     -3.77824384
      4.00500000	     -7.63553035	     -5.76207598	      4.06400429	     -0.12723396	     -0.01805887	      0.67384366	     18.44257153	      5.74060048	      2.21819490	    -25.96263091	      6.63184576	     -2.56209582	     12.54152362	     29.91507886	     -5.65700627	     -0.82625425	    -69.88410663	    -15.92146633	      2.12130014	     26.55947007	      6.38831042	     13.19555057	     -3.49615016
      4.01000000	     -7.61528532	     -5.57366905	      3.73623472	     -0.12048988	     -0.01711689	      0.67440713	     17.68035708	      5.72310036	      2.71941291	    -25.44434725	      6.83381303	     -2.59510362	     12.07848649	     30.57415290	     -5.62817129	     -1.28525941	    -69.69175951	    -15.18694686	      1.72323068	     25.14115481	      6.22550905	     13.00769614	     -3.08816642
      4.01500000	     -7.70767077	     -5.39386130	      3.54110812	     -0.11386378	     -0.01635523	      0.67483536	     17.06036502	      5.65974622	      3.07072887	    -24.92606798	      6.89430525	     -2.86725689	     11.89304102	     31.37699974	     -5.51399126	     -1.57525599	    -69.37521735	    -14.97166511	      1.05299430	     24.73551762	      6.20314253	     12.79311931	     -2.81957120
      4.02000000	     -7.75106343	     -5.17917408	      3.20757491	     -0.10722524	     -0.01561138	      0.67542650	     16.39426030	      5.60024164	      3.58529722	    -24.43099009	      6.99412566	     -3.05959698	     11.64769474	     32.06684258	     -5.46811857	     -2.02828449	    -68.99886354	    -14.61058135	      0.45923393	     23.92868535	      6.09035278	     12.56629652	     -2.39453512
      4.02500000	     -7.71573417	     -5.03123765	      2.91749729	     -0.10056282	     -0.01494042	      0.67582239	     15.64463851	      5.56875881	      3.99582492	    -23.94486849	      7.24030029	     -2.99103116	     11.13299057	     32.68960304	     -5.47103662	     -2.43489170	    -68.68796992	    -13.66980809	      0.16186703	     21.59178551	      5.91254624	     12.42147053	     -2.05790094
